<svg width="50" height="50" viewBox="0 0 50 50" fill="none" xmlns="http://www.w3.org/2000/svg">
<path d="M13.7193 7.01057C13.9549 7.01057 14.1915 6.92571 14.3789 6.75393L14.3806 6.75237C14.7782 6.38792 14.8043 5.77093 14.4397 5.37337C14.0755 4.97581 13.4568 4.94973 13.0591 5.31419C12.6615 5.67864 12.6346 6.29641 12.9992 6.69397C13.1918 6.90403 13.455 7.01057 13.7193 7.01057Z" fill="white"/>
<path d="M46.6734 19.6811C46.5823 14.3178 44.4196 9.32236 40.5838 5.61533C36.749 1.90938 31.6784 -0.0844626 26.3178 0.00274422C22.8058 0.0594824 19.364 1.03985 16.364 2.83809C15.9015 3.11534 15.7512 3.71514 16.0284 4.17774C16.3056 4.64033 16.9053 4.79063 17.3682 4.51328C20.0742 2.89122 23.1799 2.00674 26.3492 1.95557C26.4483 1.95401 26.5467 1.95323 26.6455 1.95323C36.4728 1.95323 44.5532 9.86034 44.7206 19.7144C44.7959 24.1532 43.2456 29.3212 40.7709 32.8806C39.6337 34.5161 39.0328 36.436 39.0328 38.4329V41.2207L22.2094 47.6081V45.1219C22.2094 43.022 20.501 41.3135 18.401 41.3135H15.0947C12.9809 41.3135 11.2609 39.5937 11.2609 37.4797V31.8964C11.2609 31.3571 10.8236 30.9199 10.2844 30.9199H5.58479L8.53566 20.2905C8.55919 20.2054 8.57121 20.1175 8.57121 20.0293C8.57121 16.2437 9.72863 12.6195 11.9182 9.54823C12.2313 9.10907 12.129 8.49921 11.6899 8.18613C11.251 7.87304 10.641 7.97519 10.3278 8.41435C7.92677 11.7821 6.64562 15.7488 6.61857 19.8946L3.3592 31.6352C3.27756 31.9292 3.33811 32.2445 3.52278 32.4874C3.70745 32.7304 3.99504 32.873 4.30022 32.873H9.30783V37.4796C9.30783 40.6705 11.9038 43.2665 15.0947 43.2665H18.4009C19.4239 43.2665 20.2561 44.0988 20.2561 45.1218V49.0234C20.2561 49.3443 20.4139 49.6448 20.6781 49.8272C20.8434 49.9412 21.0373 49.9999 21.2328 49.9999C21.3496 49.9999 21.4671 49.9789 21.5794 49.9363L40.3559 42.8074C40.7351 42.6634 40.9858 42.3 40.9858 41.8945V38.4328C40.9858 36.8364 41.466 35.302 42.3745 33.9955C45.1094 30.062 46.7567 24.5771 46.6734 19.6811Z" fill="white"/>
<path d="M16.2441 20.6811C16.2445 24.1951 18.0011 27.4456 20.943 29.3761C21.4806 29.7288 21.8614 30.2833 21.9983 30.9061V35.1513C21.9983 35.4103 22.1013 35.6587 22.2844 35.8418L24.2024 37.7598C24.3856 37.9429 24.634 38.0458 24.893 38.0458H28.3859C28.6449 38.0458 28.8933 37.9429 29.0765 37.7598L30.9945 35.8418C31.1776 35.6587 31.2806 35.4103 31.2806 35.1513V30.9058C31.4171 30.2816 31.7908 29.7319 32.3158 29.3892C35.2707 27.46 37.0348 24.2042 37.0348 20.68C37.0348 17.9029 35.9531 15.292 33.9891 13.3285C32.0257 11.3656 29.4158 10.2848 26.6395 10.2848C26.6386 10.2848 26.6374 10.2848 26.6366 10.2848C20.9055 10.2863 16.2435 14.95 16.2441 20.6811ZM29.3272 34.7468L27.9813 36.0927H25.2974L23.9515 34.7468V31.7818H29.3273V34.7468H29.3272ZM26.637 12.2378C26.6378 12.2378 26.6385 12.2378 26.6393 12.2378C28.8938 12.2378 31.0136 13.1157 32.608 14.7097C34.2029 16.3043 35.0814 18.4245 35.0814 20.6799C35.0814 23.542 33.6482 26.1865 31.2478 27.7537C30.4869 28.2504 29.9014 28.9825 29.5712 29.8286H23.7061C23.374 28.9831 22.7831 28.2475 22.0144 27.7431C19.6244 26.1748 18.1974 23.5347 18.1971 20.6809C18.1968 16.0266 21.9828 12.2391 26.637 12.2378Z" fill="white"/>
<path d="M27.6159 7.50286V4.88293C27.6159 4.34358 27.1786 3.90637 26.6393 3.90637C26.1001 3.90637 25.6628 4.34358 25.6628 4.88293V7.50295C25.6628 8.04231 26.1001 8.47952 26.6393 8.47952C27.1786 8.47952 27.6159 8.04221 27.6159 7.50286Z" fill="white"/>
<path d="M11.2408 20.688C11.2408 21.2273 11.6781 21.6646 12.2174 21.6646H13.7208C14.2601 21.6646 14.6974 21.2273 14.6974 20.688C14.6974 20.1486 14.2601 19.7114 13.7208 19.7114H12.2174C11.6781 19.7114 11.2408 20.1486 11.2408 20.688Z" fill="white"/>
<path d="M41.0773 21.6487C41.6165 21.6487 42.0538 21.2115 42.0538 20.6721C42.0538 20.1328 41.6165 19.6956 41.0773 19.6956H39.3556C38.8163 19.6956 38.379 20.1328 38.379 20.6721C38.379 21.2115 38.8163 21.6487 39.3556 21.6487H41.0773Z" fill="white"/>
<path d="M36.4545 12.2428L37.5358 11.1615C37.9171 10.7801 37.9171 10.1618 37.5358 9.78032C37.1544 9.39907 36.5362 9.39907 36.1546 9.78032L35.0733 10.8617C34.692 11.243 34.692 11.8614 35.0733 12.2428C35.264 12.4335 35.5139 12.5289 35.7638 12.5289C36.0137 12.5289 36.2637 12.4335 36.4545 12.2428Z" fill="white"/>
<path d="M16.8178 12.2428C17.0086 12.4335 17.2585 12.5288 17.5084 12.5288C17.7583 12.5288 18.0082 12.4335 18.1989 12.2428C18.5802 11.8614 18.5802 11.2431 18.1989 10.8616L17.1288 9.7915C16.7473 9.41016 16.1292 9.41016 15.7476 9.7915C15.3663 10.1729 15.3663 10.7912 15.7476 11.1727L16.8178 12.2428Z" fill="white"/>
<path d="M26.6472 23.5072C26.0389 23.5072 25.5437 23.0984 25.5437 22.596C25.5437 22.0566 25.1064 21.6194 24.5672 21.6194C24.0279 21.6194 23.5906 22.0566 23.5906 22.596C23.5906 23.8561 24.4639 24.928 25.6727 25.3101C25.6944 25.8303 26.1218 26.2456 26.6472 26.2456C27.1727 26.2456 27.6 25.8303 27.6218 25.3101C28.8307 24.928 29.704 23.856 29.704 22.596C29.704 21.0166 28.3328 19.7316 26.6472 19.7316C26.4867 19.7316 26.3321 19.7036 26.1877 19.6482C26.1877 19.6482 26.1876 19.6482 26.1876 19.6481C25.7965 19.498 25.5437 19.1731 25.5437 18.8204C25.5437 18.3179 26.0388 17.9092 26.6472 17.9092C27.2557 17.9092 27.7509 18.3179 27.7509 18.8204C27.7509 19.3597 28.1882 19.797 28.7274 19.797C29.2667 19.797 29.704 19.3597 29.704 18.8204C29.704 17.5609 28.8317 16.4895 27.6238 16.1068V16.0751C27.6238 15.5357 27.1865 15.0985 26.6472 15.0985C26.108 15.0985 25.6707 15.5357 25.6707 16.0751V16.1068C24.4629 16.4895 23.5906 17.5609 23.5906 18.8204C23.5906 19.9886 24.3352 21.0292 25.4876 21.4716C25.4879 21.4717 25.4881 21.4718 25.4884 21.4719C25.8568 21.6132 26.2467 21.6848 26.6472 21.6848C27.2557 21.6848 27.7509 22.0935 27.7509 22.596C27.7509 23.0984 27.2557 23.5072 26.6472 23.5072Z" fill="white"/>
</svg>
