<svg width="50" height="50" viewBox="0 0 50 50" fill="none" xmlns="http://www.w3.org/2000/svg">
<g clip-path="url(#clip0)">
<path d="M11.4723 3.2521C12.0116 3.2521 12.4489 2.81489 12.4489 2.27554V0.986572C12.4489 0.447217 12.0116 0.0100098 11.4723 0.0100098C10.9329 0.0100098 10.4957 0.447217 10.4957 0.986572V2.27554C10.4957 2.81489 10.933 3.2521 11.4723 3.2521Z" fill="white"/>
<path d="M21.2976 6.98097C21.5475 6.98097 21.7975 6.88566 21.9881 6.69494L22.6633 6.01974C23.0447 5.63839 23.0447 5.02003 22.6633 4.63859C22.282 4.25714 21.6636 4.25724 21.2822 4.63859L20.607 5.31378C20.2256 5.69513 20.2256 6.31349 20.607 6.69494C20.7977 6.88566 21.0477 6.98097 21.2976 6.98097Z" fill="white"/>
<path d="M1.88195 7.22283C2.13185 7.22283 2.38185 7.12742 2.57247 6.9368C2.95382 6.55545 2.95382 5.93709 2.57247 5.55564L1.6671 4.65027C1.28575 4.26892 0.667395 4.26892 0.28595 4.65027C-0.0953979 5.03162 -0.0953979 5.64998 0.28595 6.03143L1.19132 6.9368C1.38204 7.12742 1.63204 7.22283 1.88195 7.22283Z" fill="white"/>
<path d="M11.4804 18.7701C10.8388 18.7701 10.3168 18.3369 10.3168 17.8044C10.3168 17.265 9.8796 16.8278 9.34024 16.8278C8.80089 16.8278 8.36368 17.265 8.36368 17.8044C8.36368 19.0948 9.2628 20.1916 10.5049 20.5761C10.5164 21.1055 10.9482 21.5313 11.4804 21.5313C12.0125 21.5313 12.4443 21.1055 12.4559 20.5761C13.698 20.1916 14.5971 19.0948 14.5971 17.8044C14.5971 16.195 13.1989 14.8855 11.4804 14.8855C10.8388 14.8855 10.3168 14.4523 10.3168 13.9198C10.3168 13.3873 10.8388 12.9541 11.4804 12.9541C12.122 12.9541 12.644 13.3873 12.644 13.9198C12.644 14.4592 13.0812 14.8964 13.6205 14.8964C14.1599 14.8964 14.5971 14.4592 14.5971 13.9198C14.5971 12.6298 13.6984 11.5333 12.4569 11.1485V11.0952C12.4569 10.5559 12.0197 10.1187 11.4804 10.1187C10.941 10.1187 10.5038 10.5559 10.5038 11.0952V11.1485C9.26231 11.5333 8.36368 12.6298 8.36368 13.9198C8.36368 15.5293 9.76182 16.8387 11.4804 16.8387C12.122 16.8387 12.644 17.2719 12.644 17.8044C12.644 18.3369 12.122 18.7701 11.4804 18.7701Z" fill="white"/>
<path d="M49.0234 16.6862H47.5195C47.3141 16.0003 47.0403 15.339 46.7007 14.7082L47.7639 13.6451C48.1452 13.2638 48.1452 12.6454 47.7639 12.264L44.7996 9.29971C44.4183 8.91836 43.7999 8.91836 43.4185 9.29971L42.3554 10.3629C41.7244 10.023 41.063 9.74922 40.3773 9.54395V8.04004C40.3773 7.50068 39.9401 7.06348 39.4008 7.06348H35.2087C34.6693 7.06348 34.2321 7.50068 34.2321 8.04004V9.54756C33.5477 9.75342 32.8877 10.0274 32.2583 10.3671L31.1909 9.2998C31.0078 9.1167 30.7594 9.01377 30.5004 9.01377C30.2414 9.01377 29.993 9.1167 29.8099 9.2998L26.8456 12.2641C26.4643 12.6454 26.4643 13.2638 26.8456 13.6452L27.9167 14.7162C27.5789 15.3448 27.3063 16.0038 27.102 16.6863H25.5859C25.0466 16.6863 24.6094 17.1235 24.6094 17.6629V21.855C24.6094 22.3943 25.0466 22.8315 25.5859 22.8315H27.1056C27.3106 23.5131 27.5832 24.1704 27.9209 24.7975L26.8457 25.8727C26.4644 26.254 26.4644 26.8724 26.8457 27.2538L29.81 30.2181C29.9931 30.4012 30.2415 30.5041 30.5005 30.5041C30.7595 30.5041 31.0079 30.4012 31.191 30.2181L32.2663 29.1428C32.8934 29.4805 33.5507 29.753 34.2321 29.9581V31.4777C34.2321 32.017 34.6693 32.4543 35.2087 32.4543H39.4008C39.9401 32.4543 40.3773 32.017 40.3773 31.4777V29.9617C41.0604 29.7571 41.7189 29.4848 42.3475 29.147L43.4185 30.2182C43.6016 30.4013 43.85 30.5042 44.109 30.5042C44.368 30.5042 44.6164 30.4013 44.7995 30.2182L47.7638 27.2539C47.9469 27.0707 48.0498 26.8224 48.0498 26.5634C48.0498 26.3044 47.9469 26.056 47.7638 25.8728L46.6965 24.8056C47.0361 24.1762 47.3102 23.5161 47.516 22.8317H49.0234C49.5628 22.8317 50 22.3945 50 21.8552V17.6631C50 17.1234 49.5628 16.6862 49.0234 16.6862ZM48.0469 20.8783H46.7627C46.3048 20.8783 45.9074 21.1973 45.8084 21.6444C45.5887 22.6366 45.1995 23.5743 44.652 24.4314C44.4033 24.8161 44.4551 25.3262 44.7819 25.6529L45.6922 26.5632L44.109 28.1464L43.1959 27.2332C42.8845 26.9219 42.4021 26.8573 42.0198 27.0758C42.0063 27.0835 41.9929 27.0916 41.9797 27.1C41.1216 27.6466 40.1835 28.0344 39.1896 28.2533C38.7428 28.3526 38.4241 28.7498 38.4241 29.2075V30.5012H36.1852V29.2049C36.1852 28.747 35.8662 28.3496 35.419 28.2506C34.4282 28.0312 33.4915 27.6426 32.6351 27.096C32.6217 27.0874 32.608 27.0792 32.5942 27.0713C32.2119 26.8529 31.7296 26.9175 31.4182 27.2288L30.5005 28.1465L28.9173 26.5633L29.8292 25.6514C30.1584 25.3281 30.2172 24.814 29.9649 24.424C29.4213 23.5711 29.0345 22.6388 28.815 21.6529C28.7205 21.2062 28.3241 20.8785 27.8589 20.8785H26.5625V18.6396H27.8562C28.3146 18.6396 28.7122 18.32 28.8107 17.8723C29.0292 16.8802 29.417 15.9421 29.9636 15.0841C29.9816 15.0557 29.9982 15.0264 30.0134 14.9962C30.2014 14.6202 30.1275 14.165 29.8303 13.8678L28.9172 12.9547L30.5004 11.3715L31.4106 12.2817C31.7375 12.6086 32.2477 12.6603 32.6322 12.4116C33.4895 11.8641 34.4271 11.475 35.4197 11.2552C35.8665 11.1559 36.1852 10.7588 36.1852 10.301V9.0166H38.4241V10.2981C38.4241 10.7565 38.7437 11.1542 39.1914 11.2527C40.1863 11.4718 41.1266 11.861 41.9863 12.4097C41.9997 12.4183 42.0134 12.4265 42.0271 12.4344C42.4095 12.6527 42.8918 12.5883 43.2032 12.2769L44.1088 11.3712L45.692 12.9544L44.7863 13.86C44.475 14.1714 44.4104 14.6537 44.6288 15.036C44.6367 15.0499 44.645 15.0635 44.6535 15.0769C45.2022 15.9365 45.5914 16.8769 45.8109 17.8736C45.9103 18.3204 46.3074 18.6391 46.7651 18.6391H48.0469V20.8783Z" fill="white"/>
<path d="M37.3048 13.4111C33.8047 13.4111 30.9572 16.2587 30.9572 19.7588C30.9572 23.2589 33.8047 26.1064 37.3048 26.1064C40.8049 26.1064 43.6525 23.2589 43.6525 19.7588C43.6525 16.2587 40.8049 13.4111 37.3048 13.4111ZM37.3048 24.1533C34.8817 24.1533 32.9103 22.1819 32.9103 19.7588C32.9103 17.3356 34.8817 15.3643 37.3048 15.3643C39.728 15.3643 41.6993 17.3356 41.6993 19.7588C41.6993 22.1819 39.728 24.1533 37.3048 24.1533Z" fill="white"/>
<path d="M37.5 38.3136C36.9607 38.3136 36.5235 38.7509 36.5235 39.2901V40.6908C36.5235 41.014 36.2607 41.2768 35.9375 41.2768H31.9423L32.1673 41.1469C32.3916 41.0174 32.5553 40.8041 32.6223 40.5539C32.6894 40.3037 32.6542 40.0372 32.5247 39.8129L30.8759 36.957C30.6062 36.4899 30.009 36.3299 29.5419 36.5996L28.6027 37.1419C28.2942 36.9237 27.9678 36.7351 27.6255 36.5769V35.4931C27.6255 34.9538 27.1883 34.5165 26.649 34.5165H23.3512C22.8119 34.5165 22.3746 34.9538 22.3746 35.4931V36.5769C22.0324 36.7351 21.706 36.9237 21.3975 37.1419L20.4582 36.5996C19.9911 36.33 19.3939 36.4898 19.1243 36.957L17.4754 39.8129C17.3459 40.0372 17.3108 40.3037 17.3779 40.5539C17.445 40.8042 17.6085 41.0174 17.8328 41.1469L18.0578 41.2768H13.0348C12.7117 41.2768 12.4489 41.014 12.4489 40.6908V33.6722H13.3245C13.5835 33.6722 13.8319 33.5692 14.0151 33.3861L15.9331 31.4681C16.1162 31.2849 16.2192 31.0365 16.2192 30.7775V26.3515C16.3607 25.7007 16.7498 25.1273 17.2971 24.7701C20.3292 22.7904 22.1395 19.4495 22.1395 15.8331C22.1395 12.9833 21.0295 10.3042 19.0142 8.28936C16.9995 6.2751 14.3213 5.16602 11.4724 5.16602C11.4715 5.16602 11.4703 5.16602 11.4695 5.16602C5.58842 5.16758 0.804529 9.95332 0.805115 15.8343C0.805408 19.4402 2.60795 22.7757 5.62689 24.7567C6.18705 25.1243 6.58363 25.7025 6.72533 26.3518V30.7776C6.72533 31.0366 6.82826 31.2851 7.01136 31.4682L8.92933 33.3862C9.11244 33.5693 9.36088 33.6723 9.61986 33.6723H10.4955V40.6909C10.4955 42.091 11.6346 43.23 13.0346 43.23H18.0577L17.8327 43.3599C17.3656 43.6296 17.2056 44.2268 17.4752 44.6938L19.1241 47.5497C19.3937 48.0167 19.991 48.1768 20.458 47.9071L21.3973 47.3648C21.7058 47.583 22.0322 47.7717 22.3745 47.9299V49.0136C22.3745 49.5528 22.8117 49.9901 23.351 49.9901H26.6488C27.1881 49.9901 27.6253 49.5528 27.6253 49.0136V47.9299C27.9676 47.7717 28.294 47.583 28.6025 47.3648L29.5417 47.9071C30.009 48.177 30.6061 48.0168 30.8757 47.5497L32.5245 44.6938C32.7942 44.2268 32.6342 43.6296 32.1671 43.3599L31.9421 43.23H35.9375C37.3375 43.23 38.4766 42.091 38.4766 40.6909V39.2901C38.4766 38.7509 38.0394 38.3136 37.5 38.3136ZM2.75824 15.8341C2.75775 11.03 6.66576 7.12041 11.4699 7.11914C11.4707 7.11914 11.4714 7.11914 11.4723 7.11914C13.7994 7.11914 15.9874 8.02529 17.6332 9.67061C19.2795 11.3165 20.1863 13.5051 20.1863 15.8331C20.1863 18.7873 18.7071 21.5169 16.2292 23.1347C15.446 23.646 14.8445 24.4013 14.5081 25.274H8.43509C8.09691 24.4021 7.48988 23.643 6.69838 23.1236C4.23148 21.5049 2.75853 18.7798 2.75824 15.8341ZM8.67855 30.373V27.2272H14.266V30.3731L12.92 31.719H10.0245L8.67855 30.373ZM29.6727 45.7273L29.0041 45.3414C28.6387 45.1305 28.1792 45.1779 27.8648 45.4593C27.4196 45.8574 26.9079 46.1533 26.3439 46.3388C25.9431 46.4705 25.6723 46.8447 25.6723 47.2665V48.037H24.3277V47.2665C24.3277 46.8447 24.0569 46.4705 23.6561 46.3388C23.092 46.1534 22.5803 45.8574 22.1352 45.4593C21.8206 45.1779 21.3613 45.1304 20.9958 45.3414L20.3273 45.7273L19.655 44.5629L20.3224 44.1775C20.6873 43.9669 20.8759 43.5458 20.7903 43.1333C20.7305 42.8454 20.7002 42.5494 20.7002 42.2533C20.7002 41.9574 20.7306 41.6612 20.7904 41.3731C20.8759 40.9605 20.6873 40.5396 20.3224 40.329L19.655 39.9438L20.3273 38.7793L20.9958 39.1652C21.3613 39.3762 21.8207 39.3288 22.1352 39.0474C22.5804 38.6492 23.092 38.3533 23.6561 38.1679C24.0569 38.0361 24.3277 37.6619 24.3277 37.2401V36.4695H25.6723V37.2401C25.6723 37.6619 25.9431 38.0361 26.3439 38.1679C26.9079 38.3532 27.4197 38.6492 27.8648 39.0474C28.1792 39.3286 28.6386 39.3762 29.0041 39.1652L29.6727 38.7793L30.345 39.9438L29.6776 40.329C29.3127 40.5396 29.1241 40.9606 29.2096 41.3731C29.2694 41.6612 29.2997 41.9573 29.2997 42.2533C29.2997 42.5493 29.2694 42.8454 29.2097 43.1333C29.1241 43.5459 29.3126 43.9669 29.6776 44.1775L30.345 44.5629L29.6727 45.7273Z" fill="white"/>
<path d="M37.5001 34.4072C37.2433 34.4072 36.9913 34.5116 36.8097 34.6934C36.6281 34.875 36.5236 35.127 36.5236 35.3838C36.5236 35.6406 36.6281 35.8926 36.8097 36.0741C36.9913 36.2558 37.2433 36.3604 37.5001 36.3604C37.757 36.3604 38.0089 36.2559 38.1906 36.0741C38.3722 35.8926 38.4767 35.6406 38.4767 35.3838C38.4767 35.127 38.3722 34.875 38.1906 34.6934C38.0089 34.5117 37.757 34.4072 37.5001 34.4072Z" fill="white"/>
<path d="M25 41.2764C24.7432 41.2764 24.4912 41.3809 24.3096 41.5625C24.1279 41.7441 24.0234 41.9961 24.0234 42.2529C24.0234 42.5107 24.1279 42.7617 24.3096 42.9434C24.4912 43.1249 24.7432 43.2295 25 43.2295C25.2568 43.2295 25.5088 43.125 25.6904 42.9434C25.8721 42.7617 25.9766 42.5106 25.9766 42.2529C25.9766 41.9961 25.8721 41.7441 25.6904 41.5625C25.5088 41.3809 25.2568 41.2764 25 41.2764Z" fill="white"/>
</g>
<defs>
<clipPath id="clip0">
<rect width="50" height="50" fill="white"/>
</clipPath>
</defs>
</svg>
