<svg width="50" height="50" viewBox="0 0 50 50" fill="none" xmlns="http://www.w3.org/2000/svg">
<g clip-path="url(#clip0)">
<path d="M21.6775 36.5618C21.4959 36.7434 21.3914 36.9944 21.3914 37.2522C21.3914 37.509 21.4958 37.761 21.6775 37.9426C21.8591 38.1242 22.1111 38.2288 22.3679 38.2288C22.6257 38.2288 22.8767 38.1243 23.0583 37.9426C23.2409 37.761 23.3445 37.509 23.3445 37.2522C23.3445 36.9943 23.2409 36.7434 23.0583 36.5618C22.8767 36.3792 22.6248 36.2756 22.3679 36.2756C22.1111 36.2756 21.8591 36.3792 21.6775 36.5618Z" fill="white"/>
<path d="M34.1007 39.3334C33.8438 39.3334 33.5919 39.4379 33.4103 39.6196C33.2287 39.8011 33.1241 40.0531 33.1241 40.3099C33.1241 40.5668 33.2286 40.8187 33.4103 41.0004C33.5919 41.182 33.8438 41.2865 34.1007 41.2865C34.3575 41.2865 34.6095 41.1821 34.7911 41.0004C34.9727 40.8187 35.0772 40.5668 35.0772 40.3099C35.0772 40.0531 34.9728 39.8011 34.7911 39.6196C34.6095 39.4379 34.3575 39.3334 34.1007 39.3334Z" fill="white"/>
<path d="M5.67098 11.9136C5.92889 11.9136 6.17987 11.81 6.36141 11.6284C6.54305 11.4458 6.64754 11.1948 6.64754 10.938C6.64754 10.6802 6.54315 10.4282 6.36141 10.2466C6.17987 10.0649 5.92879 9.96143 5.67098 9.96143C5.41414 9.96143 5.16219 10.0649 4.98065 10.2466C4.79901 10.4282 4.69442 10.6802 4.69442 10.938C4.69442 11.1948 4.79891 11.4458 4.98065 11.6284C5.16219 11.81 5.41414 11.9136 5.67098 11.9136Z" fill="white"/>
<path d="M9.57735 11.9139H10.453C10.9923 11.9139 11.4296 11.4766 11.4296 10.9374C11.4296 10.3981 10.9923 9.96082 10.453 9.96082H9.57735C9.03809 9.96082 8.60079 10.3981 8.60079 10.9374C8.60079 11.4766 9.03809 11.9139 9.57735 11.9139Z" fill="white"/>
<path d="M9.57735 16.0873H10.453C10.9923 16.0873 11.4296 15.65 11.4296 15.1107C11.4296 14.5715 10.9923 14.1342 10.453 14.1342H9.57735C9.03809 14.1342 8.60079 14.5715 8.60079 15.1107C8.60079 15.65 9.03809 16.0873 9.57735 16.0873Z" fill="white"/>
<path d="M9.57735 20.2603H10.453C10.9923 20.2603 11.4296 19.8229 11.4296 19.2837C11.4296 18.7444 10.9923 18.3071 10.453 18.3071H9.57735C9.03809 18.3071 8.60079 18.7444 8.60079 19.2837C8.60079 19.8229 9.03809 20.2603 9.57735 20.2603Z" fill="white"/>
<path d="M49.0083 21.062L41.9343 13.988C42.5187 12.7301 42.8457 11.3294 42.8457 9.85343C42.8457 4.42336 38.428 0.0057373 32.998 0.0057373C29.2234 0.0057373 25.9387 2.14077 24.2863 5.26617H3.75872C1.68619 5.26617 0 6.95235 0 9.02479V37.5279C0 39.6004 1.68619 41.2865 3.75872 41.2865H18.2665V44.3356H16.3886C14.4481 44.3356 12.8695 45.9143 12.8695 47.8548V49.0175C12.8695 49.5568 13.3068 49.9941 13.8461 49.9941H30.8906C31.4299 49.9941 31.8672 49.5568 31.8672 49.0175V47.8548C31.8672 45.9143 30.2884 44.3356 28.3479 44.3356H26.47V41.2865H30.1948C30.7341 41.2865 31.1714 40.8492 31.1714 40.3099C31.1714 39.7706 30.7341 39.3333 30.1948 39.3333H25.4934H19.2432H3.75872C2.76318 39.3333 1.95319 38.5234 1.95319 37.5279V35.4616H42.7749V37.5279C42.7749 38.5234 41.965 39.3333 40.9694 39.3333H38.0075C37.4682 39.3333 37.0309 39.7706 37.0309 40.3099C37.0309 40.8492 37.4682 41.2865 38.0075 41.2865H40.9694C43.042 41.2865 44.728 39.6003 44.728 37.5279V26.2831C45.2806 26.6531 45.93 26.8519 46.61 26.8519C47.516 26.8519 48.3677 26.4991 49.0084 25.8585C50.3306 24.5361 50.3306 22.3844 49.0083 21.062ZM29.914 47.8549V48.041H14.8227V47.8549C14.8227 46.9914 15.5251 46.2889 16.3886 46.2889H19.2431H25.4933H28.3478C29.2114 46.2889 29.914 46.9914 29.914 47.8549ZM24.5167 41.2866V44.3357H20.2197V41.2866H24.5167ZM32.9981 1.95893C37.351 1.95893 40.8926 5.50045 40.8926 9.85343C40.8926 14.2064 37.351 17.7479 32.9981 17.7479C28.6451 17.7479 25.1037 14.2064 25.1037 9.85343C25.1037 5.50045 28.645 1.95893 32.9981 1.95893ZM29.5134 19.0636C30.5972 19.475 31.7717 19.701 32.9981 19.701C33.0404 19.701 33.0823 19.6999 33.1244 19.6995V28.7111H29.5134V19.0636ZM1.95319 33.5085V9.02479C1.95319 8.02925 2.76318 7.21936 3.75872 7.21936H23.5087C23.2756 8.05815 23.1505 8.94139 23.1505 9.85343C23.1505 11.3822 23.5007 12.8308 24.125 14.123L22.3389 15.9091L19.3672 12.9373C18.9858 12.5561 18.3676 12.5561 17.986 12.9373L14.2564 16.6669C13.8751 17.0483 13.8751 17.6667 14.2564 18.0481C14.4472 18.2388 14.6971 18.3342 14.947 18.3342C15.1969 18.3342 15.4468 18.2388 15.6375 18.0481L18.6766 15.0091L21.6483 17.9807C22.0296 18.362 22.6478 18.3621 23.0295 17.9807L25.1785 15.8318C25.8431 16.6992 26.6484 17.4531 27.5602 18.0594V28.7112H26.0358V20.3639C26.0358 19.8247 25.5985 19.3873 25.0592 19.3873H19.495C18.9557 19.3873 18.5184 19.8247 18.5184 20.3639V28.7112H16.9939V23.457C16.9939 22.9177 16.5566 22.4804 16.0173 22.4804H10.4531C9.91381 22.4804 9.47649 22.9177 9.47649 23.457V28.7112H6.64797V14.8438C6.64797 14.3046 6.21066 13.8672 5.67138 13.8672C5.1321 13.8672 4.69479 14.3046 4.69479 14.8438V29.6877C4.69479 30.227 5.1321 30.6643 5.67138 30.6643H39.0567C39.5959 30.6643 40.0333 30.227 40.0333 29.6877C40.0333 29.1484 39.5959 28.7111 39.0567 28.7111H35.0776V19.4793C35.7972 19.3241 36.4876 19.09 37.1397 18.7864L42.7749 24.4217V33.5085H1.95319ZM24.0826 28.7112H20.4716V21.3405H24.0826V28.7112ZM15.0407 28.7112H11.4297V24.4336H15.0407V28.7112ZM47.6272 24.4774C47.3555 24.7491 46.9943 24.8988 46.61 24.8988C46.2258 24.8988 45.8646 24.749 45.5929 24.4774L38.8698 17.7543C39.6425 17.1786 40.3281 16.4923 40.9033 15.7192L47.6273 22.4433C48.188 23.004 48.188 23.9166 47.6272 24.4774Z" fill="white"/>
<path d="M32.9981 12.7372C32.3749 12.7372 31.8681 12.3176 31.8681 11.8019C31.8681 11.2626 31.4308 10.8253 30.8915 10.8253C30.3522 10.8253 29.9149 11.2626 29.9149 11.8019C29.9149 13.0754 30.7996 14.1583 32.0232 14.5415C32.0404 15.0657 32.4698 15.4857 32.9981 15.4857C33.5264 15.4857 33.9557 15.0658 33.973 14.5415C35.1967 14.1583 36.0814 13.0755 36.0814 11.8019C36.0814 10.2092 34.6982 8.91341 32.9981 8.91341C32.3749 8.91341 31.8681 8.49387 31.8681 7.97813C31.8681 7.46239 32.3749 7.04284 32.9981 7.04284C33.6213 7.04284 34.1282 7.46239 34.1282 7.97813C34.1282 8.5174 34.5655 8.95472 35.1048 8.95472C35.6441 8.95472 36.0814 8.5174 36.0814 7.97813C36.0814 6.70514 35.1975 5.62268 33.9747 5.23897V5.19766C33.9747 4.65839 33.5374 4.22107 32.9981 4.22107C32.4588 4.22107 32.0215 4.65839 32.0215 5.19766V5.23897C30.7988 5.62268 29.9149 6.70514 29.9149 7.97813C29.9149 9.57086 31.298 10.8666 32.9981 10.8666C33.6213 10.8666 34.1282 11.2861 34.1282 11.8019C34.1282 12.3176 33.6213 12.7372 32.9981 12.7372Z" fill="white"/>
</g>
<defs>
<clipPath id="clip0">
<rect width="50" height="50" fill="white"/>
</clipPath>
</defs>
</svg>
