<svg width="50" height="50" viewBox="0 0 50 50" fill="none" xmlns="http://www.w3.org/2000/svg">
<path d="M8.33667 29.8865C8.87602 29.8865 9.31323 29.4458 9.31323 28.9066V28.8928C9.31323 28.3536 8.87602 27.9197 8.33667 27.9197C7.79731 27.9197 7.36011 28.3604 7.36011 28.8998V28.9133C7.36011 29.4527 7.79731 29.8865 8.33667 29.8865Z" fill="white"/>
<path d="M37.2576 37.6881C37.2822 37.6899 37.3067 37.6908 37.3312 37.6908C37.5892 37.6908 37.8379 37.5885 38.0217 37.4047C41.0076 34.418 42.6521 30.4475 42.6521 26.2243C42.6521 21.365 40.4484 17.0115 36.9885 14.1084L38.8504 12.2465H41.6635C42.2029 12.2465 42.6401 11.8092 42.6401 11.2699C42.6401 10.7306 42.2029 10.2933 41.6635 10.2933H38.4459C38.1869 10.2933 37.9385 10.3963 37.7554 10.5794L35.3999 12.9348C32.9309 11.3387 29.9913 10.4111 26.8389 10.4111C26.2995 10.4111 25.8623 10.8484 25.8623 11.3877V20.6699C25.8623 21.2092 26.2995 21.6465 26.8389 21.6465C29.3632 21.6465 31.4168 23.7001 31.4168 26.2244C31.4168 27.4471 30.9407 28.5968 30.076 29.4614C29.6947 29.8427 29.6947 30.4611 30.076 30.8426L36.6381 37.4047C36.8033 37.5698 37.0246 37.6705 37.2576 37.6881ZM27.8155 19.7661V12.3982C30.0596 12.5552 32.1581 13.2489 33.9833 14.3513L33.2363 15.0984C32.8549 15.4798 32.8549 16.0981 33.2363 16.4796C33.427 16.6702 33.6769 16.7656 33.9268 16.7656C34.1767 16.7656 34.4267 16.6702 34.6173 16.4796L35.6022 15.4947C38.711 18.0385 40.6989 21.9035 40.6989 26.2243C40.6989 29.599 39.5008 32.7896 37.3061 35.3105L32.0965 30.101C32.9231 28.9847 33.3699 27.6387 33.3699 26.2243C33.3699 22.9551 30.955 20.2389 27.8155 19.7661Z" fill="white"/>
<path d="M8.33667 44.7266H15.1104C15.3694 44.7266 15.6178 44.6237 15.8009 44.4406L16.8426 43.3989C18.7975 44.256 20.9443 44.7266 23.1733 44.7266C27.3977 44.7266 31.3692 43.0813 34.3561 40.0939C34.6209 39.8289 34.7097 39.4357 34.5864 39.082C34.5335 38.9303 34.4454 38.7974 34.3324 38.6915L27.7914 32.1505C27.41 31.7693 26.7916 31.7693 26.4102 32.1505C25.5456 33.0152 24.3959 33.4913 23.1732 33.4913C21.9128 33.4913 20.7699 32.9792 19.9412 32.1524C19.94 32.1512 19.9391 32.1499 19.9379 32.1488C19.9368 32.1476 19.9355 32.1467 19.9343 32.1455C19.1074 31.3168 18.5953 30.1739 18.5953 28.9134C18.5953 26.3892 20.6489 24.3356 23.1731 24.3356C23.7125 24.3356 24.1497 23.8983 24.1497 23.359V14.0768C24.1497 13.5375 23.7125 13.1002 23.1731 13.1002C20.0037 13.1002 17.0012 14.0514 14.4804 15.7116L12.2446 13.4758C12.0615 13.2927 11.813 13.1898 11.5541 13.1898H8.33667C7.79731 13.1898 7.36011 13.6271 7.36011 14.1663C7.36011 14.7056 7.79731 15.1429 8.33667 15.1429H11.1498L12.9034 16.8965C10.5474 18.9065 8.77104 21.6084 7.91616 24.743C7.77427 25.2633 8.08101 25.8001 8.60132 25.942C9.12163 26.0839 9.65854 25.7772 9.80044 25.2569C10.5638 22.4579 12.1664 20.0538 14.2895 18.2825L15.3828 19.3758C15.5735 19.5664 15.8234 19.6618 16.0733 19.6618C16.3232 19.6618 16.5732 19.5664 16.7638 19.3758C17.1452 18.9945 17.1452 18.3761 16.7638 17.9947L15.8953 17.1261C17.7669 15.9698 19.9194 15.2485 22.1967 15.0875V22.455C19.0572 22.9279 16.6423 25.6438 16.6423 28.9131C16.6423 30.3621 17.1173 31.702 17.9189 32.7865L12.7081 37.9974C11.3742 36.4662 10.3647 34.6302 9.80415 32.5832C9.66167 32.063 9.12417 31.7568 8.60435 31.8993C8.08413 32.0417 7.77798 32.5789 7.92036 33.0991C9.01831 37.1083 11.6248 40.4087 15.0231 42.456L14.7059 42.7735H8.33667C7.79731 42.7735 7.36011 43.2108 7.36011 43.75C7.36011 44.2893 7.79731 44.7266 8.33667 44.7266ZM14.0911 39.3768L19.2999 34.1679C20.3844 34.9695 21.7243 35.4445 23.1733 35.4445C24.5878 35.4445 25.9338 34.9978 27.0499 34.1711L32.2595 39.3808C29.7387 41.5754 26.5481 42.7735 23.1733 42.7735C21.4884 42.7735 19.8574 42.4662 18.3414 41.9002L19.6394 40.6022C20.0208 40.2208 20.0208 39.6025 19.6394 39.221C19.2581 38.8398 18.6397 38.8398 18.2583 39.221L16.4512 41.0281C15.6091 40.5601 14.8179 40.0064 14.0911 39.3768Z" fill="white"/>
<path d="M47.0703 17.4121C46.8135 17.4121 46.5615 17.5166 46.3799 17.6982C46.1982 17.8799 46.0938 18.1318 46.0938 18.3887C46.0938 18.6455 46.1982 18.8975 46.3799 19.0791C46.5615 19.2606 46.8135 19.3652 47.0703 19.3652C47.3271 19.3652 47.5791 19.2607 47.7607 19.0791C47.9424 18.8975 48.0469 18.6455 48.0469 18.3887C48.0469 18.1318 47.9424 17.8799 47.7607 17.6982C47.5791 17.5166 47.3271 17.4121 47.0703 17.4121Z" fill="white"/>
<path d="M49.0234 0H0.976562C0.437207 0 0 0.437305 0 0.976562V6.25C0 6.78926 0.437207 7.22656 0.976562 7.22656H1.95312V49.0234C1.95312 49.5627 2.39033 50 2.92969 50H47.0703C47.6097 50 48.0469 49.5627 48.0469 49.0234V22.2948C48.0469 21.7556 47.6097 21.3183 47.0703 21.3183C46.531 21.3183 46.0938 21.7556 46.0938 22.2948V48.0469H3.90625V7.22656H46.0938V14.4823C46.0938 15.0216 46.531 15.4589 47.0703 15.4589C47.6097 15.4589 48.0469 15.0216 48.0469 14.4823V7.22656H49.0234C49.5628 7.22656 50 6.78926 50 6.25V0.976562C50 0.437305 49.5628 0 49.0234 0ZM48.0469 5.27344H47.0703H2.92969H1.95312V1.95312H48.0469V5.27344Z" fill="white"/>
</svg>
