<svg width="50" height="50" viewBox="0 0 50 50" fill="none" xmlns="http://www.w3.org/2000/svg">
<path d="M23.7435 13.3131H23.7305C23.1912 13.3131 22.7539 13.7503 22.7539 14.2897C22.7539 14.829 23.1912 15.2662 23.7305 15.2662H23.7435C24.2827 15.2662 24.72 14.829 24.72 14.2897C24.72 13.7503 24.2827 13.3131 23.7435 13.3131Z" fill="white"/>
<path d="M19.8242 13.3131H12.0969C11.5577 13.3131 11.1204 13.7503 11.1204 14.2897C11.1204 14.829 11.5577 15.2662 12.0969 15.2662H19.8242C20.3634 15.2662 20.8007 14.829 20.8007 14.2897C20.8007 13.7503 20.3634 13.3131 19.8242 13.3131Z" fill="white"/>
<path d="M46.1914 9.39182V8.78303C46.1914 7.1676 44.8771 5.85334 43.2617 5.85334C41.6463 5.85334 40.332 7.1676 40.332 8.78303V9.27131H37.211V4.9012C37.211 3.65266 36.1952 2.63684 34.9466 2.63684H21.108C19.8595 2.63684 18.8436 3.65266 18.8436 4.9012V9.27131H15.7227V8.78303C15.7227 7.1676 14.4084 5.85334 12.793 5.85334C11.1775 5.85334 9.86328 7.1676 9.86328 8.78303V9.39182C7.68613 9.88274 6.05469 11.8309 6.05469 14.1541V14.2898V22.9685V28.2399C2.49824 29.7617 0 33.2956 0 37.4024C0 42.8948 4.46846 47.3633 9.96094 47.3633C15.4534 47.3633 19.9219 42.8948 19.9219 37.4024C19.9219 31.9099 15.4534 27.4414 9.96094 27.4414C9.29258 27.4414 8.63965 27.5081 8.00781 27.6342V23.9443L23.8312 23.934C23.8947 26.16 25.7239 27.9515 27.9649 27.9515H28.0896C30.327 27.9515 32.154 26.1657 32.2231 23.9448H48.0469V37.2071C48.0469 38.8225 46.7326 40.1367 45.1172 40.1367H26.7578C26.2186 40.1367 25.7812 40.5739 25.7812 41.1133C25.7812 41.6527 26.2186 42.0899 26.7578 42.0899H45.1172C47.8096 42.0899 50 39.8994 50 37.2071V22.9684V14.2897V14.154C50 11.8309 48.3686 9.88264 46.1914 9.39182ZM17.9688 37.4024C17.9688 41.8179 14.3765 45.4102 9.96094 45.4102C5.54541 45.4102 1.95312 41.8179 1.95312 37.4024C1.95312 32.9868 5.54541 29.3946 9.96094 29.3946C14.3765 29.3946 17.9688 32.9868 17.9688 37.4024ZM42.2852 8.78303C42.2852 8.24456 42.7232 7.80647 43.2617 7.80647C43.8002 7.80647 44.2383 8.24456 44.2383 8.78303V9.27131H42.2852V8.78303ZM20.7968 4.9011C20.7968 4.72952 20.9364 4.58987 21.1081 4.58987H34.9467C35.1184 4.58987 35.258 4.72952 35.258 4.9011V9.27122H20.7968V4.9011ZM11.8164 8.78303C11.8164 8.24456 12.2545 7.80647 12.793 7.80647C13.3314 7.80647 13.7695 8.24456 13.7695 8.78303V9.27131H11.8164V8.78303ZM30.2734 23.8147C30.2734 25.0189 29.2938 25.9985 28.0896 25.9985H27.965C26.7609 25.9985 25.7813 25.0189 25.7813 23.8147V20.7201H30.2735V23.8147H30.2734ZM32.2266 21.9918V19.7436C32.2266 19.2042 31.7893 18.767 31.25 18.767H24.8047C24.2654 18.767 23.8281 19.2042 23.8281 19.7436V21.9809L8.00781 21.9911V14.2897V14.154C8.00781 12.5386 9.32207 11.2243 10.9375 11.2243H45.1172C46.7326 11.2243 48.0469 12.5386 48.0469 14.154V14.2897V21.9918H32.2266Z" fill="white"/>
<path d="M22.8516 40.1367C22.5947 40.1367 22.3428 40.2412 22.1611 40.4229C21.9795 40.6045 21.875 40.8564 21.875 41.1133C21.875 41.3701 21.9794 41.6221 22.1611 41.8037C22.3429 41.9854 22.5947 42.0898 22.8516 42.0898C23.1084 42.0898 23.3604 41.9854 23.5419 41.8037C23.7235 41.6221 23.8281 41.3701 23.8281 41.1133C23.8281 40.8564 23.7236 40.6045 23.5419 40.4229C23.3604 40.2412 23.1084 40.1367 22.8516 40.1367Z" fill="white"/>
<path d="M9.96095 40.3355C9.32297 40.3355 8.80392 39.9049 8.80392 39.3757C8.80392 38.8364 8.36662 38.3991 7.82736 38.3991C7.28811 38.3991 6.8508 38.8364 6.8508 39.3757C6.8508 40.6628 7.74709 41.7569 8.98557 42.141C8.99816 42.6694 9.42961 43.0941 9.96095 43.0941C10.4923 43.0941 10.9237 42.6694 10.9363 42.141C12.1748 41.7569 13.0711 40.6628 13.0711 39.3757C13.0711 37.7696 11.6759 36.4628 9.96095 36.4628C9.32297 36.4628 8.80392 36.0323 8.80392 35.5031C8.80392 34.9739 9.32287 34.5433 9.96095 34.5433C10.599 34.5433 11.118 34.9739 11.118 35.5031C11.118 36.0424 11.5553 36.4796 12.0945 36.4796C12.6338 36.4796 13.0711 36.0424 13.0711 35.5031C13.0711 34.2163 12.1754 33.1226 10.9375 32.7381V32.6871C10.9375 32.1478 10.5002 31.7106 9.96095 31.7106C9.4217 31.7106 8.98439 32.1478 8.98439 32.6871V32.7381C7.7466 33.1226 6.8508 34.2164 6.8508 35.5031C6.8508 37.1092 8.24602 38.4159 9.96095 38.4159C10.5989 38.4159 11.118 38.8465 11.118 39.3757C11.118 39.9049 10.5989 40.3355 9.96095 40.3355Z" fill="white"/>
</svg>
