<svg width="50" height="50" viewBox="0 0 50 50" fill="none" xmlns="http://www.w3.org/2000/svg">
<path d="M43.75 22.6562H39.8063V12.6043C39.8063 10.977 38.4824 9.65322 36.8552 9.65322H36.2926C35.8895 8.5166 34.8039 7.7001 33.5309 7.7001H32.8169C31.2015 7.7001 29.8872 9.01436 29.8872 10.6298C29.8872 12.2452 31.2015 13.5595 32.8169 13.5595H33.5309C34.8039 13.5595 35.8895 12.743 36.2926 11.6063H36.8552C37.4055 11.6063 37.8531 12.054 37.8531 12.6043V22.6562H31.3634V17.4052C31.3634 14.5129 29.0103 12.1598 26.118 12.1598H24.2351C25.0586 11.1928 25.5572 9.94102 25.5572 8.57441V6.63672V5.74023V5.53848C25.5572 2.48457 23.0727 0 20.0187 0C16.9646 0 14.4802 2.48457 14.4802 5.53848V5.74023V6.63672V8.57441C14.4802 9.94111 14.9787 11.1929 15.8022 12.1598H13.9194C11.0271 12.1598 8.67402 14.5129 8.67402 17.4052V22.6562H6.25C5.71074 22.6562 5.27344 23.0935 5.27344 23.6328V29.8828C5.27344 30.4222 5.71074 30.8594 6.25 30.8594H9.43389V49.0234C9.43389 49.5628 9.87119 50 10.4104 50H15.9375C16.4768 50 16.9141 49.5628 16.9141 49.0234C16.9141 48.4841 16.4768 48.0469 15.9375 48.0469H11.3869V36.3281H28.9825C29.5218 36.3281 29.9591 35.8909 29.9591 35.3516C29.9591 34.8122 29.5218 34.375 28.9825 34.375H11.387V30.8594H38.6131V48.0469H23.7498C23.2105 48.0469 22.7732 48.4841 22.7732 49.0234C22.7732 49.5628 23.2105 50 23.7498 50H39.5896C40.1288 50 40.5661 49.5628 40.5661 49.0234V30.8594H43.75C44.2893 30.8594 44.7266 30.4222 44.7266 29.8828V23.6328C44.7266 23.0935 44.2893 22.6562 43.75 22.6562ZM33.5309 11.6063H32.8169C32.2784 11.6063 31.8403 11.1683 31.8403 10.6298C31.8403 10.0913 32.2784 9.65322 32.8169 9.65322H33.5309C34.0693 9.65322 34.5074 10.0913 34.5074 10.6298C34.5074 11.1683 34.0693 11.6063 33.5309 11.6063ZM16.5486 14.1129H18.1247L16.5486 15.6272V14.1129ZM23.4888 14.1129V15.6273L21.9126 14.1129H23.4888ZM16.4333 5.53848C16.4333 3.56152 18.0417 1.95312 20.0187 1.95312C21.7766 1.95312 23.2431 3.2248 23.5465 4.89658L22.0235 4.00186C21.6123 3.76025 21.0868 3.85098 20.7804 4.2166C20.0116 5.13398 18.8842 5.66016 17.6872 5.66016H16.4333V5.53848ZM16.4333 8.57441V7.61328H17.6872C19.1816 7.61328 20.6029 7.06055 21.6958 6.07451L23.6041 7.19561V8.57441C23.6041 10.5514 21.9956 12.1598 20.0187 12.1598C18.0417 12.1598 16.4333 10.5514 16.4333 8.57441ZM10.6271 17.4052C10.6271 15.5898 12.104 14.1129 13.9194 14.1129H14.5955V17.9199C14.5955 18.3113 14.8293 18.6649 15.1894 18.8184C15.5495 18.9718 15.9664 18.8954 16.2487 18.6241L19.0421 15.94V18.1641C19.0421 18.7034 19.4794 19.1406 20.0187 19.1406C20.5579 19.1406 20.9952 18.7034 20.9952 18.1641V15.94L23.7887 18.6241C23.9742 18.8024 24.218 18.8966 24.4655 18.8966C24.5945 18.8966 24.7246 18.871 24.848 18.8185C25.2082 18.665 25.4419 18.3114 25.4419 17.92V14.113H26.118C27.9333 14.113 29.4103 15.5899 29.4103 17.4053V22.6562H10.6271V17.4052ZM42.7734 28.9062H7.22656V24.6094H42.7734V28.9062Z" fill="white"/>
<path d="M19.8438 48.0469C19.5868 48.0469 19.335 48.1514 19.1534 48.333C18.9717 48.5146 18.8672 48.7666 18.8672 49.0234C18.8672 49.2803 18.9716 49.5322 19.1534 49.7139C19.3351 49.8955 19.5868 50 19.8438 50C20.1006 50 20.3526 49.8955 20.5341 49.7139C20.7158 49.5322 20.8203 49.2803 20.8203 49.0234C20.8203 48.7666 20.7159 48.5146 20.5341 48.333C20.3526 48.1514 20.1006 48.0469 19.8438 48.0469Z" fill="white"/>
<path d="M32.9476 36.3281C33.4869 36.3281 33.9242 35.8909 33.9242 35.3516C33.9242 34.8122 33.4869 34.375 32.9476 34.375H32.8887C32.3495 34.375 31.9122 34.8122 31.9122 35.3516C31.9122 35.8909 32.3495 36.3281 32.8887 36.3281H32.9476Z" fill="white"/>
</svg>
