<svg width="50" height="50" viewBox="0 0 50 50" fill="none" xmlns="http://www.w3.org/2000/svg">
<path d="M4.31379 22.0481C4.31379 26.9599 8.30969 30.9558 13.2214 30.9558C17.8031 30.9558 21.5873 27.4786 22.0752 23.0247H22.7696C23.3088 23.0247 23.7461 22.5874 23.7461 22.0481C23.7461 16.2448 19.0247 11.5234 13.2214 11.5234C12.6822 11.5234 12.2448 11.9607 12.2448 12.5V13.1943C7.79094 13.6822 4.31379 17.4665 4.31379 22.0481ZM12.2448 19.6905L9.04534 16.491C9.96272 15.7999 11.056 15.3314 12.2448 15.1636V19.6905ZM13.2214 29.0026C9.38664 29.0026 6.26692 25.8829 6.26692 22.0481C6.26692 20.4822 6.78752 19.0358 7.66428 17.8721L12.5309 22.7387C12.531 22.7388 12.5311 22.7388 12.5313 22.739C12.708 22.9155 12.952 23.0247 13.2214 23.0247H20.106C19.6295 26.3985 16.7245 29.0026 13.2214 29.0026ZM14.198 13.5318C18.1461 13.9814 21.2882 17.1234 21.7377 21.0716H14.198V13.5318Z" fill="white"/>
<path d="M46.4931 5.27344H29.1016V0.976562C29.1016 0.437305 28.6643 0 28.125 0H21.875C21.3357 0 20.8984 0.437305 20.8984 0.976562V5.27344H15.1688C14.6296 5.27344 14.1923 5.71074 14.1923 6.25C14.1923 6.78926 14.6296 7.22656 15.1688 7.22656H46.4931C47.3498 7.22656 48.0469 7.92363 48.0469 8.78037V34.1884C48.0469 35.0451 47.3498 35.7422 46.4931 35.7422H3.50693C2.6502 35.7422 1.95312 35.0451 1.95312 34.1884V8.78037C1.95312 7.92363 2.6502 7.22656 3.50693 7.22656H7.34062C7.87988 7.22656 8.31719 6.78926 8.31719 6.25C8.31719 5.71074 7.87988 5.27344 7.34062 5.27344H3.50693C1.57314 5.27344 0 6.84658 0 8.78037V34.1884C0 36.1222 1.57314 37.6953 3.50693 37.6953H14.0336L8.5043 48.5812C8.35059 48.884 8.36504 49.2448 8.54268 49.5343C8.72031 49.8236 9.03545 50 9.375 50H15.625C15.9927 50 16.3292 49.7936 16.4957 49.4656L20.8984 40.7978V49.0234C20.8984 49.5627 21.3357 50 21.875 50H28.125C28.6643 50 29.1016 49.5627 29.1016 49.0234V40.7978L33.5043 49.4656C33.6708 49.7935 34.0073 50 34.375 50H40.625C40.9646 50 41.2797 49.8236 41.4573 49.5342C41.6349 49.2447 41.6494 48.8839 41.4957 48.5812L35.9663 37.6953H46.493C48.4269 37.6953 50 36.1222 50 34.1884V8.78037C50 6.84658 48.4269 5.27344 46.4931 5.27344ZM22.8516 5.27344V1.95312H27.1484V5.27344H22.8516ZM15.0257 48.0469H10.9664L16.2243 37.6953H20.2836L15.0257 48.0469ZM27.1484 48.0469H22.8516V37.6953H27.1484V48.0469ZM39.0336 48.0469H34.9743L29.7164 37.6953H33.7757L39.0336 48.0469Z" fill="white"/>
<path d="M11.247 7.22656C11.5048 7.22656 11.7558 7.12207 11.9384 6.94033C12.12 6.75879 12.2246 6.50684 12.2246 6.25C12.2246 5.99316 12.1201 5.74121 11.9384 5.55957C11.7568 5.37793 11.5048 5.27344 11.247 5.27344C10.9902 5.27344 10.7382 5.37783 10.5575 5.55957C10.375 5.74121 10.2705 5.99316 10.2705 6.25C10.2705 6.50684 10.375 6.75879 10.5575 6.94033C10.7382 7.12207 10.9902 7.22656 11.247 7.22656Z" fill="white"/>
<path d="M25.0124 18.0729H31.2501C31.7893 18.0729 32.2266 17.6356 32.2266 17.0963C32.2266 16.5571 31.7893 16.1198 31.2501 16.1198H25.0124C24.4732 16.1198 24.0359 16.5571 24.0359 17.0963C24.0359 17.6356 24.4731 18.0729 25.0124 18.0729Z" fill="white"/>
<path d="M25.0124 13.3854H36.2303C36.7696 13.3854 37.2069 12.9481 37.2069 12.4088C37.2069 11.8696 36.7696 11.4323 36.2303 11.4323H25.0124C24.4732 11.4323 24.0359 11.8696 24.0359 12.4088C24.0359 12.9481 24.4731 13.3854 25.0124 13.3854Z" fill="white"/>
<path d="M40.8271 13.0996C41.0087 12.9181 41.1133 12.6661 41.1133 12.4092C41.1133 12.1523 41.0088 11.9004 40.8271 11.7188C40.6455 11.5362 40.3936 11.4326 40.1367 11.4326C39.8799 11.4326 39.6279 11.5362 39.4463 11.7188C39.2646 11.9004 39.1602 12.1515 39.1602 12.4092C39.1602 12.6661 39.2646 12.9181 39.4463 13.0996C39.6279 13.2813 39.8799 13.3857 40.1367 13.3857C40.3936 13.3857 40.6455 13.2813 40.8271 13.0996Z" fill="white"/>
<path d="M25.0124 30.9558H45.1172C45.6565 30.9558 46.0938 30.5185 46.0938 29.9793V17.2181C46.0938 16.6789 45.6565 16.2416 45.1172 16.2416C44.578 16.2416 44.1407 16.6789 44.1407 17.2181V29.0028H42.1876V19.3606C42.1876 18.8214 41.7502 18.3841 41.211 18.3841H36.5235C35.9842 18.3841 35.5469 18.8214 35.5469 19.3606V20.9793H31.836C31.2967 20.9793 30.8594 21.4166 30.8594 21.9558V24.2118H27.1485C26.6092 24.2118 26.1719 24.6491 26.1719 25.1883V29.0029H25.0124C24.4732 29.0029 24.0359 29.4402 24.0359 29.9795C24.0359 30.5187 24.4731 30.9558 25.0124 30.9558ZM37.5 20.3371H40.2344V29.0027H37.5V21.9557V20.3371ZM32.8125 22.9323H35.5469V29.0027H32.8125V25.1881V22.9323ZM28.125 26.1648H30.8594V29.0028H28.125V26.1648Z" fill="white"/>
</svg>
