<svg width="50" height="50" viewBox="0 0 50 50" fill="none" xmlns="http://www.w3.org/2000/svg">
<g clip-path="url(#clip0)">
<path d="M30.5554 14.0023C30.7461 14.193 30.996 14.2883 31.2459 14.2883C31.4958 14.2883 31.7458 14.193 31.9364 14.0023C32.3178 13.6209 32.3178 13.0025 31.9364 12.6211L31.9232 12.6079C31.5419 12.2266 30.9235 12.2266 30.5421 12.6079C30.1607 12.9893 30.1607 13.6076 30.5421 13.9891L30.5554 14.0023Z" fill="white"/>
<path d="M46.3102 23.2422L49.714 19.8384C49.9933 19.5591 50.0768 19.139 49.9256 18.7741C49.7744 18.4092 49.4184 18.1713 49.0233 18.1713H41.9676C41.0453 14.3959 39.1097 10.9558 36.3426 8.18857C32.3218 4.16758 26.9756 1.95312 21.2891 1.95312C15.6025 1.95312 10.2563 4.16758 6.23545 8.18857C2.21445 12.2096 0 17.5557 0 23.2422C0 28.9287 2.21445 34.2749 6.23545 38.2958C7.43115 39.4915 8.74473 40.5261 10.1489 41.3915L7.20684 46.5893C7.03574 46.8916 7.03809 47.2621 7.21309 47.5621C7.38799 47.8623 7.70918 48.0469 8.05664 48.0469H13.0859C13.4378 48.0469 13.7625 47.8576 13.9358 47.5514L16.0161 43.8761C17.7188 44.308 19.4867 44.5312 21.2891 44.5312C23.0914 44.5312 24.8594 44.308 26.562 43.8761L28.6423 47.5514C28.8156 47.8576 29.1403 48.0469 29.4922 48.0469H34.5215C34.8689 48.0469 35.1901 47.8623 35.3651 47.5622C35.5401 47.2621 35.5425 46.8916 35.3714 46.5894L32.4293 41.3916C33.8335 40.5261 35.1471 39.4916 36.3428 38.2959C39.1088 35.5299 41.0454 32.0883 41.9676 28.3132H49.0234C49.4184 28.3132 49.7745 28.0752 49.9257 27.7104C50.0769 27.3455 49.9933 26.9254 49.7141 26.6461L46.3102 23.2422ZM44.5245 22.2656H37.7092L39.8504 20.1244H46.6658L44.5245 22.2656ZM12.5165 46.0938H9.73154L11.8571 42.3386C12.5866 42.6997 13.3355 43.0191 14.1018 43.2932L12.5165 46.0938ZM32.8466 46.0938H30.0616L28.4764 43.2932C29.2426 43.0191 29.9915 42.6997 30.721 42.3386L32.8466 46.0938ZM34.9616 36.9147C33.6716 38.2048 32.2308 39.289 30.6798 40.1532C30.6606 40.1625 30.6413 40.1713 30.6225 40.1819C30.6106 40.1887 30.5999 40.1964 30.5885 40.2035C29.3987 40.858 28.145 41.3835 26.8441 41.7716C26.793 41.7817 26.7424 41.7968 26.6925 41.8155C24.9587 42.3173 23.144 42.5781 21.2891 42.5781C19.4341 42.5781 17.6194 42.3173 15.8856 41.8156C15.8356 41.7969 15.7851 41.7818 15.7338 41.7717C14.433 41.3836 13.1793 40.8581 11.9896 40.2036C11.9782 40.1965 11.9675 40.1888 11.9557 40.182C11.9368 40.1714 11.9176 40.1626 11.8984 40.1533C10.3475 39.2891 8.90664 38.2049 7.6166 36.9147C3.96445 33.2627 1.95312 28.407 1.95312 23.2422C1.95312 18.0773 3.96445 13.2217 7.6165 9.56963C11.2686 5.91758 16.1242 3.90625 21.2891 3.90625C26.4539 3.90625 31.3096 5.91758 34.9616 9.56963C37.3613 11.9693 39.0729 14.9255 39.9517 18.1713H39.446C39.187 18.1713 38.9386 18.2742 38.7555 18.4573L36.1636 21.0492C35.9021 19.2737 35.328 17.5474 34.4612 15.9773C34.2006 15.5052 33.6064 15.3339 33.1343 15.5944C32.6621 15.8551 32.4907 16.4492 32.7514 16.9214C33.6784 18.6005 34.1963 20.4261 34.3288 22.2657H30.0229C29.8056 20.2876 28.9314 18.4551 27.5039 17.0275C25.8438 15.3674 23.6367 14.4531 21.2891 14.4531C18.9414 14.4531 16.7343 15.3674 15.0743 17.0273C13.4143 18.6875 12.5 20.8945 12.5 23.2422C12.5 25.5898 13.4143 27.797 15.0742 29.4569C16.7343 31.117 18.9414 32.0312 21.2891 32.0312C23.6367 32.0312 25.8438 31.117 27.5038 29.457C28.9313 28.0295 29.8055 26.197 30.0229 24.2188H34.3245C34.0916 27.2715 32.8034 30.234 30.5422 32.4953C28.0706 34.967 24.7844 36.3281 21.2891 36.3281C17.7938 36.3281 14.5075 34.967 12.0359 32.4953C9.56426 30.0237 8.20312 26.7376 8.20312 23.2422C8.20312 19.7468 9.56426 16.4606 12.0359 13.9891C16.1357 9.88926 22.54 8.98086 27.61 11.78C28.082 12.0405 28.6762 11.8692 28.9369 11.3971C29.1976 10.9249 29.0262 10.3309 28.554 10.0701C25.7566 8.52568 22.4628 7.91016 19.2795 8.3373C15.9899 8.77852 13.0075 10.2553 10.6549 12.608C7.81436 15.4485 6.25 19.2251 6.25 23.2422C6.25 27.2593 7.81436 31.0359 10.6548 33.8764C13.4953 36.7169 17.272 38.2812 21.2891 38.2812C25.3062 38.2812 29.0828 36.7169 31.9232 33.8765C34.2313 31.5685 35.6956 28.6543 36.167 25.4388L38.7554 28.0271C38.9385 28.2103 39.1869 28.3132 39.4459 28.3132H39.9514C39.0726 31.5588 37.3604 34.516 34.9616 36.9147ZM24.4785 21.4008C24.2089 20.9336 23.6116 20.7736 23.1445 21.0434L20.8008 22.3965C20.4986 22.5709 20.3125 22.8933 20.3125 23.2422C20.3125 23.5911 20.4986 23.9135 20.8008 24.0879L23.1445 25.441C23.2983 25.5298 23.4662 25.572 23.6319 25.572C23.9694 25.572 24.2977 25.3969 24.4785 25.0836C24.637 24.8092 24.6461 24.4901 24.5327 24.2188H28.0554C27.8484 25.6741 27.1808 27.018 26.1228 28.0759C24.8316 29.3671 23.115 30.0781 21.2891 30.0781C19.4631 30.0781 17.7465 29.3671 16.4553 28.0759C15.1642 26.7848 14.4531 25.0682 14.4531 23.2422C14.4531 21.4162 15.1642 19.6996 16.4554 18.4084C17.7465 17.1173 19.4631 16.4062 21.2891 16.4062C23.115 16.4062 24.8316 17.1173 26.1229 18.4085C27.1808 19.4664 27.8485 20.8103 28.0555 22.2656H24.5328C24.6461 21.9941 24.637 21.6752 24.4785 21.4008ZM39.8504 26.36L37.7092 24.2188H44.5245L46.6658 26.36H39.8504Z" fill="white"/>
</g>
<defs>
<clipPath id="clip0">
<rect width="50" height="50" fill="white"/>
</clipPath>
</defs>
</svg>
